# xmcd
#
# Track frame offsets:
#	150
#	23101
#	41764
#	60630
#	86320
#	98823
#	119630
#	139406
#	160946
#	182634
#	200660
#
# Disc length: 3272 seconds
#
# Revision: 1
# Processed by: cddbd v1.5.2PL0 Copyright (c) Steve Scherf et al.
# Submitted via: audiograbber 1.83.01
#
DISCID=980cc60b
DTITLE=Bridgeshadows - Pray for Rain
DYEAR=2008
DGENRE=Gothic Rock
TTITLE0=Feedback
TTITLE1=Do You Feel?
TTITLE2=Cold Day in Hell
TTITLE3=I Want to Die
TTITLE4=Waters Run Deep
TTITLE5=Pray for Rain
TTITLE6=The Art of Letting Go
TTITLE7=Cry for Mercy
TTITLE8=Rose
TTITLE9=Let This Begin
TTITLE10=Dust to Dust
EXTD=
EXTT0=
EXTT1=
EXTT2=
EXTT3=
EXTT4=
EXTT5=
EXTT6=
EXTT7=
EXTT8=
EXTT9=
EXTT10=
PLAYORDER=
